# File created by Blade
# Date/Time:  Tue Jan 27 17:27:32 2015
# Frame Rate: 120.000 fps
#------------------------------------------------------
:FULLY-SPECIFIED
:DEGREES
1477
root 2.630032 36.785575 0.514874 5.673098 6.929274 1.591237
Spine -1.933805 10.954207 -4.175181
Head 4.740747 -9.100974 4.506289
LeftShoulder -5.450967 -6.358720 8.867915
LeftArm -15.079580 -32.348185 -43.885835
LeftForeArm 2.611127 -0.000000 99.114427
LeftHand -10.876676 0.000000 29.498229
LeftHandThumb1 -26.253704 0.000000 33.147579
RightShoulder -5.458261 -21.244458 4.324288
RightArm 27.167712 -35.082997 52.195966
RightForeArm 183.645212 0.000000 32.099089
RightHand 1.525133 -0.000000 -0.801341
RightHandThumb1 -24.326973 -0.000000 -32.862282
LeftUpLeg -4.454556 8.748408 -4.348536
LeftLeg 6.943501 -0.000000 -0.000000
LeftFoot -18.200954 3.829536 -15.614889
LeftToeBase 16.060609 -0.000000 -0.000000
RightUpLeg -6.819450 -4.536323 -5.830149
RightLeg 18.590337 -0.000000 -0.000000
RightFoot -20.854923 -2.212615 8.434550
RightToeBase 3.598332 -0.000000 -0.000000
1478
root 2.599253 36.791573 0.510203 5.693221 6.903015 1.551174
Spine -1.932935 10.894563 -4.206538
Head 4.684438 -9.091866 4.515710
LeftShoulder -5.438634 -6.319609 8.861168
LeftArm -15.072659 -32.440342 -43.806874
LeftForeArm 2.588573 -0.000000 99.141932
LeftHand -10.906850 -0.000000 29.540531
LeftHandThumb1 -26.253704 0.000000 33.147579
RightShoulder -5.453304 -21.229663 4.293251
RightArm 27.085366 -35.030815 52.301124
RightForeArm 183.560052 0.000000 32.046961
RightHand 1.567903 -0.000000 -0.906209
RightHandThumb1 -24.326973 -0.000000 -32.862282
LeftUpLeg -4.482545 8.730921 -4.275850
LeftLeg 6.919428 -0.000000 -0.000000
LeftFoot -18.179945 3.908400 -15.614254
LeftToeBase 16.016838 -0.000000 -0.000000
RightUpLeg -6.760092 -4.728014 -5.755717
RightLeg 18.328385 -0.000000 -0.000000
RightFoot -20.553324 -2.153668 8.441895
RightToeBase 4.257402 -0.000000 -0.000000
1479
root 2.567170 36.797361 0.503851 5.748790 6.924614 1.490063
Spine -1.976462 10.791533 -4.204548
Head 4.627753 -9.076627 4.517152
LeftShoulder -5.438869 -6.304740 8.859119
LeftArm -15.075715 -32.478853 -43.734407
LeftForeArm 2.570529 -0.000000 99.161761
LeftHand -10.943898 0.000000 29.643438
LeftHandThumb1 -26.253704 0.000000 33.147579
RightShoulder -5.437040 -21.216028 4.250480
RightArm 26.988238 -35.013010 52.379499
RightForeArm 183.541318 -0.000000 32.031318
RightHand 1.621412 -0.000000 -0.905422
RightHandThumb1 -24.326973 -0.000000 -32.862282
LeftUpLeg -4.562459 8.690027 -4.180228
LeftLeg 6.915157 -0.000000 -0.000000
LeftFoot -18.166321 3.939838 -15.629750
LeftToeBase 16.024506 -0.000000 -0.000000
RightUpLeg -6.723442 -5.063240 -5.662453
RightLeg 18.059596 -0.000000 -0.000000
RightFoot -20.231346 -1.860813 8.395027
RightToeBase 4.676596 -0.000000 -0.000000
1480
root 2.535500 36.803337 0.506109 5.728893 7.052999 1.421864
Spine -1.929627 10.598002 -4.158839
Head 4.594083 -9.048737 4.512513
LeftShoulder -5.438154 -6.318267 8.842808
LeftArm -15.075383 -32.534918 -43.696313
LeftForeArm 2.640108 -0.000000 99.193163
LeftHand -10.943673 -0.000000 29.555209
LeftHandThumb1 -26.253704 0.000000 33.147579
RightShoulder -5.418009 -21.217108 4.218452
RightArm 26.919271 -34.994829 52.401636
RightForeArm 183.333699 -0.000000 32.017318
RightHand 1.625217 0.000000 -1.051886
RightHandThumb1 -24.326973 -0.000000 -32.862282
LeftUpLeg -4.551926 8.571625 -4.053484
LeftLeg 6.907695 -0.000000 -0.000000
LeftFoot -18.152519 3.969441 -15.638004
LeftToeBase 16.042257 -0.000000 -0.000000
RightUpLeg -6.573784 -5.572941 -5.553346
RightLeg 17.773189 -0.000000 -0.000000
RightFoot -19.919969 -1.592237 8.318072
RightToeBase 4.787618 -0.000000 -0.000000
1481
root 2.498586 36.808807 0.511320 5.642701 7.195190 1.318767
Spine -1.794293 10.398896 -4.062548
Head 4.531241 -9.023697 4.475187
LeftShoulder -5.435057 -6.346305 8.806567
LeftArm -15.069743 -32.554184 -43.612091
LeftForeArm 2.647896 -0.000000 99.229725
LeftHand -10.819840 -0.000000 29.457916
LeftHandThumb1 -26.253704 0.000000 33.147579
RightShoulder -5.378467 -21.215933 4.180307
RightArm 26.882396 -34.965482 52.391757
RightForeArm 183.287938 -0.000000 31.986563
RightHand 1.648702 -0.000000 -1.079571
RightHandThumb1 -24.326973 -0.000000 -32.862282
LeftUpLeg -4.483285 8.512376 -3.873067
LeftLeg 6.911002 -0.000000 -0.000000
LeftFoot -18.146837 3.904929 -15.653334
LeftToeBase 16.083129 -0.000000 -0.000000
RightUpLeg -6.325370 -6.112738 -5.407869
RightLeg 17.411631 -0.000000 -0.000000
RightFoot -19.614939 -1.328427 8.357011
RightToeBase 4.862160 -0.000000 -0.000000
1482
root 2.468962 36.812777 0.503523 5.659145 7.172270 1.298201
Spine -1.758240 10.396260 -4.098690
Head 4.452805 -9.041476 4.445189
LeftShoulder -5.406825 -6.382496 8.799055
LeftArm -15.033375 -32.539078 -43.551545
LeftForeArm 2.610332 -0.000000 99.271446
LeftHand -10.845940 -0.000000 29.539569
LeftHandThumb1 -26.253704 0.000000 33.147579
RightShoulder -5.380658 -21.225385 4.157909
RightArm 26.875705 -34.933155 52.381687
RightForeArm 183.116184 0.000000 31.966687
RightHand 1.666819 0.000000 -1.233811
RightHandThumb1 -24.326973 -0.000000 -32.862282
LeftUpLeg -4.524255 8.577368 -3.823477
LeftLeg 6.919453 -0.000000 -0.000000
LeftFoot -18.121181 3.908349 -15.635471
LeftToeBase 16.060378 -0.000000 -0.000000
RightUpLeg -6.263798 -6.519610 -5.360938
RightLeg 17.165807 -0.000000 -0.000000
RightFoot -19.367689 -1.007131 8.297560
RightToeBase 4.873003 -0.000000 -0.000000
1483
root 2.433193 36.817416 0.471016 6.026010 6.997220 1.271562
Spine -2.174708 10.544664 -4.252315
Head 4.457091 -9.118719 4.420146
LeftShoulder -5.379455 -6.384291 8.849765
LeftArm -15.008560 -32.500223 -43.499801
LeftForeArm 2.622001 -0.000000 99.312213
LeftHand -10.910239 0.000000 29.488741
LeftHandThumb1 -26.253704 0.000000 33.147579
RightShoulder -5.445915 -21.275039 4.181784
RightArm 26.863442 -34.982712 52.350924
RightForeArm 183.034014 0.000000 31.943573
RightHand 1.657689 -0.000000 -1.377985
RightHandThumb1 -24.326973 -0.000000 -32.862282
LeftUpLeg -4.978495 8.727238 -3.834262
LeftLeg 6.973284 -0.000000 -0.000000
LeftFoot -18.111389 3.929548 -15.656689
LeftToeBase 16.088405 -0.000000 -0.000000
RightUpLeg -6.697629 -6.686985 -5.263279
RightLeg 17.092381 -0.000000 -0.000000
RightFoot -19.170054 -0.763206 8.223767
RightToeBase 4.961462 -0.000000 -0.000000
